<?xml version="1.0" encoding="UTF-8"?>
<svg width="18px" height="25px" viewBox="0 0 18 25" version="1.1" xmlns="http://www.w3.org/2000/svg" xmlns:xlink="http://www.w3.org/1999/xlink">
    <!-- Generator: sketchtool 49.1 (51147) - http://www.bohemiancoding.com/sketch -->
    <title>E3169417-8D35-4B4C-84AD-8B6113032A07</title>
    <desc>Created with sketchtool.</desc>
    <defs></defs>
    <g id="Design" stroke="none" stroke-width="1" fill="none" fill-rule="evenodd" opacity="0.400000006">
        <g id="Ab-invest-1_4-05" transform="translate(-1177.000000, -36.000000)" fill="#6D7986" fill-rule="nonzero">
            <g id="appstore" transform="translate(1156.000000, 20.000000)">
                <g id="apple" transform="translate(21.000000, 16.000000)">
                    <path d="M0.928912854,9.92678834 C1.9081687,8.19243883 3.68440593,7.09729242 5.56420163,7.06912689 C5.5829057,7.06875919 5.60189865,7.06853857 5.62118045,7.06853857 C6.42964426,7.06853857 7.19333383,7.37710924 7.86711385,7.64942506 C8.37096842,7.85298168 8.80607288,8.02881401 9.14137413,8.02881401 C9.43977274,8.02881401 9.87242184,7.85511432 10.3733155,7.65398449 C11.098947,7.36262201 12.0021589,7 12.9450176,7 C13.0657636,7 13.1860041,7.00595668 13.3024893,7.0177965 C14.105248,7.05294826 16.0991458,7.34511967 17.400054,9.2837612 C17.4274962,9.32464902 17.4376066,9.37524402 17.4279295,9.42385346 C17.4182525,9.47253644 17.389727,9.51511566 17.3487803,9.54195748 L17.3311594,9.55313545 C16.9531782,9.79125552 15.0684718,11.1050341 15.0926643,13.585954 C15.1187345,16.6395975 17.5987938,17.7599679 17.8815214,17.8777042 C17.8839046,17.8787338 17.8924261,17.8823372 17.8947371,17.8834403 C17.9785804,17.9226367 18.0198883,18.0198556 17.9906406,18.1089116 L17.98443,18.1288408 C17.8308254,18.6299372 17.3755726,19.9412154 16.4680277,21.2917636 C15.5983243,22.5852454 14.612569,24.0514708 13.0070516,24.081916 C12.2565776,24.0962562 11.7486789,23.8715203 11.2555846,23.6542853 C10.7552686,23.4338147 10.2379096,23.2057695 9.42720707,23.2057695 C8.57505228,23.2057695 8.03176749,23.4414628 7.50646461,23.6694344 C7.03857385,23.8723292 6.55465103,24.0822837 5.88498736,24.1094932 C5.85740065,24.1105963 5.83046389,24.1111111 5.80359935,24.1111111 C4.37826214,24.1111111 3.33762226,22.7523265 2.3097647,21.2385947 C0.250583195,18.210837 -0.933189802,13.2173018 0.928912854,9.92678834 Z M13.6920931,0.000147592146 C13.7886344,-0.00376989643 13.8743577,0.0707392 13.885101,0.171057633 C14.0214824,1.45123145 13.5706331,2.88042346 12.6790066,3.9940656 C11.8318457,5.04871498 10.5913575,5.7037037 9.44144196,5.7037037 C9.36071734,5.70362689 9.27969429,5.70040072 9.20031259,5.6940252 C9.11250032,5.68703517 9.04147459,5.61767258 9.02991053,5.52780079 C8.84548237,4.09138831 9.54551853,2.66634423 10.2621174,1.8116404 C11.1053241,0.794783265 12.5160652,0.0494618601 13.6920931,0.000147592146 Z" id="Combined-Shape"></path>
                </g>
            </g>
        </g>
    </g>
</svg>