<?xml version="1.0" encoding="UTF-8"?>
<svg width="18px" height="23px" viewBox="0 0 18 23" version="1.1" xmlns="http://www.w3.org/2000/svg" xmlns:xlink="http://www.w3.org/1999/xlink">
    <!-- Generator: sketchtool 49.1 (51147) - http://www.bohemiancoding.com/sketch -->
    <title>63F28B1E-B561-42B5-81D2-7A01030FC376</title>
    <desc>Created with sketchtool.</desc>
    <defs></defs>
    <g id="Design" stroke="none" stroke-width="1" fill="none" fill-rule="evenodd">
        <g id="Ab-invest-1_10-05" transform="translate(-170.000000, -5098.000000)" fill="#FFFFFF" fill-rule="nonzero">
            <g id="where-1tab-1step" transform="translate(147.000000, 4829.000000)">
                <g id="step-1-block" transform="translate(3.000000, 210.000000)">
                    <g id="appstore-btn" transform="translate(0.000000, 43.000000)">
                        <g id="apple--icon" transform="translate(20.000000, 16.000000)">
                            <path d="M0.928912854,8.81567723 C1.9081687,7.08132772 3.68440593,5.98618131 5.56420163,5.95801578 C5.5829057,5.95764808 5.60189865,5.95742746 5.62118045,5.95742746 C6.42964426,5.95742746 7.19333383,6.26599813 7.86711385,6.53831395 C8.37096842,6.74187057 8.80607288,6.9177029 9.14137413,6.9177029 C9.43977274,6.9177029 9.87242184,6.74400321 10.3733155,6.54287338 C11.098947,6.2515109 12.0021589,5.88888889 12.9450176,5.88888889 C13.0657636,5.88888889 13.1860041,5.89484557 13.3024893,5.90668539 C14.105248,5.94183714 16.0991458,6.23400856 17.400054,8.17265009 C17.4274962,8.21353791 17.4376066,8.26413291 17.4279295,8.31274235 C17.4182525,8.36142532 17.389727,8.40400455 17.3487803,8.43084637 L17.3311594,8.44202433 C16.9531782,8.6801444 15.0684718,9.99392298 15.0926643,12.4748429 C15.1187345,15.5284864 17.5987938,16.6488568 17.8815214,16.7665931 C17.8839046,16.7676227 17.8924261,16.7712261 17.8947371,16.7723292 C17.9785804,16.8115256 18.0198883,16.9087445 17.9906406,16.9978005 L17.98443,17.0177296 C17.8308254,17.518826 17.3755726,18.8301043 16.4680277,20.1806525 C15.5983243,21.4741342 14.612569,22.9403597 13.0070516,22.9708049 C12.2565776,22.9851451 11.7486789,22.7604091 11.2555846,22.5431742 C10.7552686,22.3227036 10.2379096,22.0946584 9.42720707,22.0946584 C8.57505228,22.0946584 8.03176749,22.3303517 7.50646461,22.5583233 C7.03857385,22.7612181 6.55465103,22.9711726 5.88498736,22.9983821 C5.85740065,22.9994852 5.83046389,23 5.80359935,23 C4.37826214,23 3.33762226,21.6412154 2.3097647,20.1274836 C0.250583195,17.0997259 -0.933189802,12.1061907 0.928912854,8.81567723 Z M13.6920931,0.000147592146 C13.7886344,-0.00376989643 13.8743577,0.0707392 13.885101,0.171057633 C14.0214824,1.45123145 13.5706331,2.88042346 12.6790066,3.9940656 C11.8318457,5.04871498 10.5913575,5.7037037 9.44144196,5.7037037 C9.36071734,5.70362689 9.27969429,5.70040072 9.20031259,5.6940252 C9.11250032,5.68703517 9.04147459,5.61767258 9.02991053,5.52780079 C8.84548237,4.09138831 9.54551853,2.66634423 10.2621174,1.8116404 C11.1053241,0.794783265 12.5160652,0.0494618601 13.6920931,0.000147592146 Z" id="Combined-Shape"></path>
                        </g>
                    </g>
                </g>
            </g>
        </g>
    </g>
</svg>