<?xml version="1.0" encoding="UTF-8"?>
<svg width="13px" height="13px" viewBox="0 0 13 13" version="1.1" xmlns="http://www.w3.org/2000/svg" xmlns:xlink="http://www.w3.org/1999/xlink">
    <!-- Generator: sketchtool 49.1 (51147) - http://www.bohemiancoding.com/sketch -->
    <title>E5DE8C58-60EC-4BD1-8E86-215904BA11D9</title>
    <desc>Created with sketchtool.</desc>
    <defs></defs>
    <g id="Design" stroke="none" stroke-width="1" fill="none" fill-rule="evenodd">
        <g id="Ab-invest-1_4-05" transform="translate(-150.000000, -4647.000000)" fill="#F03226" fill-rule="nonzero">
            <g id="service" transform="translate(148.000000, 4557.000000)">
                <g id="1" transform="translate(2.000000, 82.000000)">
                    <path d="M12.3530921,8.00096911 C8.47632649,10.5463219 5.68207377,13.760967 4.54755862,15.189595 L1.63456749,12.7454251 C1.55743086,12.686015 -0.0416374706,14.206543 0.00083101069,14.2538855 L5.30592436,20.0305925 C5.34492603,20.077935 5.39866166,20.0992855 5.4567308,20.0992855 C5.46713125,20.0992855 5.48359862,20.0992855 5.49746588,20.0955723 C5.56680217,20.0788632 5.62573802,20.0287359 5.65173914,19.9544733 C6.50630898,17.614271 9.32829623,12.7147917 12.9320502,9.16132324 C12.9961863,9.09634341 13.0187206,8.99423225 12.9831857,8.90604533 C12.982319,8.90511705 12.4068278,7.96569434 12.3530921,8.00096911 Z" id="check-icon"></path>
                </g>
            </g>
        </g>
    </g>
</svg>