<?xml version="1.0" encoding="UTF-8"?>
<svg width="58px" height="44px" viewBox="0 0 58 44" version="1.1" xmlns="http://www.w3.org/2000/svg" xmlns:xlink="http://www.w3.org/1999/xlink">
    <!-- Generator: sketchtool 49.1 (51147) - http://www.bohemiancoding.com/sketch -->
    <title>461E5983-3188-42E4-BFB4-99E66ECFE52D</title>
    <desc>Created with sketchtool.</desc>
    <defs></defs>
    <g id="Design" stroke="none" stroke-width="1" fill="none" fill-rule="evenodd">
        <g id="Ab-invest-1_4-05" transform="translate(-211.000000, -1829.000000)">
            <g id="how-to-start" transform="translate(148.000000, 1361.000000)">
                <g id="step-3" transform="translate(2.000000, 381.000000)">
                    <g id="step-3-icon" transform="translate(32.000000, 47.000000)">
                        <g id="choose-tools-icon" transform="translate(21.000000, 18.000000)">
                            <rect id="Rectangle-3" x="0" y="0" width="74" height="80"></rect>
                            <path d="M63.154596,22 L10.8455173,22 C9.27645562,22 8,23.2638566 8,24.8174312 L8,55.509474 C8,57.0630485 9.27645562,58.3269052 10.8455173,58.3269052 L30.2797466,58.3269052 L30.2797466,64.2015728 L27.3131315,64.2015728 C26.8116344,64.2015728 26.4049539,64.6041271 26.4049539,65.1007864 C26.4049539,65.5973336 26.8115211,66 27.3131315,66 L46.6868685,66 C47.1883656,66 47.5950461,65.5974457 47.5950461,65.1007864 C47.5950461,64.6042393 47.1884789,64.2015728 46.6868685,64.2015728 L43.7202534,64.2015728 L43.7202534,58.3269052 L63.1544827,58.3269052 C64.7235444,58.3269052 66,57.0630485 66,55.509474 L66,24.8174312 C66.0001133,23.2638566 64.7236577,22 63.154596,22 Z M41.9040115,64.2015728 L32.0961018,64.2015728 L32.0961018,58.3269052 L41.9040115,58.3269052 L41.9040115,64.2015728 Z M64.1838715,55.509474 C64.1838715,56.0714124 63.7221362,56.5285902 63.154596,56.5285902 L10.8455173,56.5285902 C10.2779771,56.5285902 9.81624183,56.0714124 9.81624183,55.509474 L9.81624183,54.4903578 L64.1838715,54.4903578 L64.1837582,55.509474 L64.1838715,55.509474 Z M64.1838715,52.6920428 L9.81624183,52.6920428 L9.81624183,24.8174312 C9.81624183,24.2554928 10.2779771,23.798315 10.8455173,23.798315 L63.154596,23.798315 C63.7221362,23.798315 64.1838715,24.2554928 64.1838715,24.8174312 L64.1838715,52.6920428 Z" id="Shape" fill="#F03226" fill-rule="nonzero"></path>
                            <path d="M24.7118644,26.8888889 C18.2071397,26.8888889 12.9152542,31.9330762 12.9152542,38.1333333 C12.9152542,44.3335904 18.2071397,49.3777778 24.7118644,49.3777778 C31.2165891,49.3777778 36.5084746,44.3335904 36.5084746,38.1333333 C36.5084746,31.9330762 31.2165891,26.8888889 24.7118644,26.8888889 Z M24.7118644,28.6549934 C27.1204396,28.6549934 29.3314012,29.4759736 31.0539913,30.8391335 L28.1510352,33.6062104 C27.183884,32.9366924 25.9957753,32.5404672 24.7117488,32.5404672 C21.7916894,32.5404672 19.3636995,34.5844911 18.9182021,37.250226 L14.8128075,37.250226 C15.2817643,32.4365917 19.5413207,28.6549934 24.7118644,28.6549934 Z M15.6098492,41.9433515 C15.1887357,41.0329259 14.9134633,40.0486969 14.8129231,39.0163305 L18.9184332,39.0163305 C18.9777173,39.370697 19.0714394,39.7142684 19.1974036,40.0435197 L15.6098492,41.9433515 Z M23.7853915,47.5690436 C20.7692988,47.3021396 18.1403439,45.7466503 16.5112448,43.4861731 L20.1006482,41.5854601 C20.9946477,42.6679467 22.2970488,43.429664 23.7853915,43.6557007 L23.7853915,47.5690436 Z M20.6973027,38.1333333 C20.6973027,36.023327 22.4982449,34.3066819 24.7118644,34.3066819 C26.9254839,34.3066819 28.7264261,36.023327 28.7264261,38.1333333 C28.7264261,40.2433396 26.9254839,41.9599848 24.7118644,41.9599848 C22.4982449,41.9599848 20.6973027,40.2433396 20.6973027,38.1333333 Z M25.6383373,47.5690436 L25.6383373,43.6557007 C28.4349748,43.2310557 30.5793718,40.9166029 30.5793718,38.1333333 C30.5793718,36.9094085 30.1636898,35.7769118 29.4612946,34.8550301 L32.3642506,32.0879532 C33.7943494,33.7300239 34.6556444,35.8374967 34.6556444,38.1333333 C34.6556444,43.0618586 30.6883482,47.1221474 25.6383373,47.5690436 Z" id="Shape" fill="#F03226" fill-rule="nonzero"></path>
                            <path d="M61.1408887,38.6222222 L41.3675859,38.6222222 C40.8557459,38.6222222 40.440678,39.0599476 40.440678,39.6 C40.440678,40.1400524 40.8556302,40.5777778 41.3675859,40.5777778 L61.1408887,40.5777778 C61.6527287,40.5777778 62.0677966,40.1400524 62.0677966,39.6 C62.0677966,39.0599476 61.6527287,38.6222222 61.1408887,38.6222222 Z" id="Shape" fill="#F03226" fill-rule="nonzero"></path>
                            <path d="M44.4106593,43.5111111 L41.3859509,43.5111111 C40.8639697,43.5111111 40.440678,43.9488365 40.440678,44.4888889 C40.440678,45.0289413 40.8638518,45.4666667 41.3859509,45.4666667 L44.4106593,45.4666667 C44.9326405,45.4666667 45.3559322,45.0289413 45.3559322,44.4888889 C45.3559322,43.9488365 44.9326405,43.5111111 44.4106593,43.5111111 Z" id="Shape" fill="#F03226" fill-rule="nonzero"></path>
                            <path d="M55.2361852,43.5111111 L47.2722894,43.5111111 C46.7569162,43.5111111 46.3389831,43.9488365 46.3389831,44.4888889 C46.3389831,45.0289413 46.7567997,45.4666667 47.2722894,45.4666667 L55.2361852,45.4666667 C55.7515584,45.4666667 56.1694915,45.0289413 56.1694915,44.4888889 C56.1694915,43.9488365 55.7515584,43.5111111 55.2361852,43.5111111 Z" id="Shape" fill="#F03226" fill-rule="nonzero"></path>
                            <path d="M58.1880597,46.4444444 L47.2695674,46.4444444 C46.7556972,46.4444444 46.3389831,46.8821698 46.3389831,47.4222222 C46.3389831,47.9622746 46.7555812,48.4 47.2695674,48.4 L58.1880597,48.4 C58.7019299,48.4 59.1186441,47.9622746 59.1186441,47.4222222 C59.1186441,46.8821698 58.7020459,46.4444444 58.1880597,46.4444444 Z" id="Shape" fill="#F03226" fill-rule="nonzero"></path>
                            <path d="M44.4106593,46.4444444 L41.3859509,46.4444444 C40.8639697,46.4444444 40.440678,46.8821698 40.440678,47.4222222 C40.440678,47.9622746 40.8638518,48.4 41.3859509,48.4 L44.4106593,48.4 C44.9326405,48.4 45.3559322,47.9622746 45.3559322,47.4222222 C45.3559322,46.8821698 44.9326405,46.4444444 44.4106593,46.4444444 Z" id="Shape" fill="#F03226" fill-rule="nonzero"></path>
                            <path d="M41.4237288,29.8222222 C40.8808866,29.8222222 40.440678,30.2400605 40.440678,30.7555767 L40.440678,35.7333122 C40.440678,36.248712 40.880764,36.6666667 41.4237288,36.6666667 C41.9666937,36.6666667 42.4067797,36.2488284 42.4067797,35.7333122 L42.4067797,30.7555767 C42.406657,30.2401769 41.966571,29.8222222 41.4237288,29.8222222 Z" id="Shape" fill="#F03226" fill-rule="nonzero"></path>
                            <path d="M52.2372881,29.8222222 C51.6944459,29.8222222 51.2542373,30.2400605 51.2542373,30.7555767 L51.2542373,35.7333122 C51.2542373,36.248712 51.6943233,36.6666667 52.2372881,36.6666667 C52.7801304,36.6666667 53.220339,36.2488284 53.220339,35.7333122 L53.220339,30.7555767 C53.220339,30.2401769 52.780253,29.8222222 52.2372881,29.8222222 Z" id="Shape" fill="#F03226" fill-rule="nonzero"></path>
                            <path d="M48.3050847,32.7555556 C47.7622425,32.7555556 47.3220339,33.1791727 47.3220339,33.7018188 L47.3220339,35.7204035 C47.3220339,36.2429315 47.7621199,36.6666667 48.3050847,36.6666667 C48.8480496,36.6666667 49.2881356,36.2430495 49.2881356,35.7204035 L49.2881356,33.7018188 C49.288013,33.1791727 48.847927,32.7555556 48.3050847,32.7555556 Z" id="Shape" fill="#F03226" fill-rule="nonzero"></path>
                            <path d="M56.1694915,32.7555556 C55.6266493,32.7555556 55.1864407,33.1791727 55.1864407,33.7018188 L55.1864407,35.7204035 C55.1864407,36.2429315 55.6265267,36.6666667 56.1694915,36.6666667 C56.7123337,36.6666667 57.1525424,36.2430495 57.1525424,35.7204035 L57.1525424,33.7018188 C57.1525424,33.1791727 56.7123337,32.7555556 56.1694915,32.7555556 Z" id="Shape" fill="#F03226" fill-rule="nonzero"></path>
                            <path d="M44.3728814,27.8666667 C43.8300391,27.8666667 43.3898305,28.2828265 43.3898305,28.7962719 L43.3898305,35.7370614 C43.3898305,36.2503909 43.8299165,36.6666667 44.3728814,36.6666667 C44.9158462,36.6666667 45.3559322,36.2505069 45.3559322,35.7370614 L45.3559322,28.7962719 C45.3559322,28.2828265 44.9158462,27.8666667 44.3728814,27.8666667 Z" id="Shape" fill="#F03226" fill-rule="nonzero"></path>
                            <path d="M60.1016949,27.8666667 C59.5588527,27.8666667 59.1186441,28.2828265 59.1186441,28.7962719 L59.1186441,35.7370614 C59.1186441,36.2503909 59.5587301,36.6666667 60.1016949,36.6666667 C60.6445371,36.6666667 61.0847458,36.2505069 61.0847458,35.7370614 L61.0847458,28.7962719 C61.0846231,28.2828265 60.6445371,27.8666667 60.1016949,27.8666667 Z" id="Shape" fill="#F03226" fill-rule="nonzero"></path>
                        </g>
                    </g>
                </g>
            </g>
        </g>
    </g>
</svg>