<?xml version="1.0" encoding="UTF-8"?>
<svg width="58px" height="58px" viewBox="0 0 58 58" version="1.1" xmlns="http://www.w3.org/2000/svg" xmlns:xlink="http://www.w3.org/1999/xlink">
    <!-- Generator: sketchtool 49.1 (51147) - http://www.bohemiancoding.com/sketch -->
    <title>C24253CB-E23B-4A2F-A96A-8AF61299763C</title>
    <desc>Created with sketchtool.</desc>
    <defs></defs>
    <g id="Design" stroke="none" stroke-width="1" fill="none" fill-rule="evenodd">
        <g id="Ab-invest-1_4-05" transform="translate(-798.000000, -1576.000000)">
            <g id="how-to-start" transform="translate(148.000000, 1361.000000)">
                <g id="step-2" transform="translate(587.000000, 139.000000)">
                    <g id="step-3-icon" transform="translate(32.000000, 47.000000)">
                        <g id="deposit-funds-icon" transform="translate(21.000000, 18.000000)">
                            <rect id="Rectangle-3" x="0" y="0" width="74" height="80"></rect>
                            <path d="M40.516392,63.1016949 L36.5005572,63.1016949 C35.9808056,63.1016949 35.559322,63.5417809 35.559322,64.0847458 C35.559322,64.627588 35.9806882,65.0677966 36.5005572,65.0677966 L40.516392,65.0677966 C41.0361435,65.0677966 41.4576271,64.6277106 41.4576271,64.0847458 C41.4576271,63.5417809 41.0362609,63.1016949 40.516392,63.1016949 Z" id="Shape" fill="#F03226" fill-rule="nonzero"></path>
                            <path d="M40.516392,14.9322034 L36.5005572,14.9322034 C35.9808056,14.9322034 35.559322,15.3722894 35.559322,15.9152542 C35.559322,16.4580965 35.9806882,16.8983051 36.5005572,16.8983051 L40.516392,16.8983051 C41.0361435,16.8983051 41.4576271,16.4582191 41.4576271,15.9152542 C41.4576271,15.3722894 41.0362609,14.9322034 40.516392,14.9322034 Z" id="Shape" fill="#F03226" fill-rule="nonzero"></path>
                            <path d="M33.590591,14.9322034 C33.0492007,14.9322034 32.6101695,15.3722894 32.6101695,15.9152542 C32.6101695,16.4580965 33.0490784,16.8983051 33.590591,16.8983051 L33.6011082,16.8983051 C34.1424985,16.8983051 34.5762712,16.4582191 34.5762712,15.9152542 C34.5762712,15.3722894 34.1321037,14.9322034 33.590591,14.9322034 Z" id="Shape" fill="#F03226" fill-rule="nonzero"></path>
                            <path d="M64.1858203,26.4988838 L55.4070898,26.4988838 L55.4070898,14.8141722 C55.4070898,12.7109967 53.6959766,11 51.5929102,11 L26.4070898,11 C24.3039102,11 22.5929102,12.7111099 22.5929102,14.8141722 L22.5929102,15.8434437 L11.8768438,15.8434437 C10.8419063,15.8434437 10,16.6853483 10,17.7202837 L10,62.2797163 C10,63.3146517 10.8419063,64.1565563 11.8768438,64.1565563 L22.5929102,64.1565563 L22.5929102,65.1858278 C22.5929102,67.2890033 24.3040234,69 26.4070898,69 L51.5929102,69 C53.6960898,69 55.4070898,67.2888901 55.4070898,65.1858278 L55.4070898,53.5010029 L64.1858203,53.5010029 C66.289,53.5010029 68,51.789893 68,49.6868307 L68,30.3131693 C68,28.2099937 66.2888867,26.4988838 64.1858203,26.4988838 Z M22.5929102,48.9721407 C22.273457,48.8477581 21.9265898,48.77877 21.5636367,48.77877 C19.9945781,48.7786567 18.718125,50.0551073 18.718125,51.6241628 C18.718125,53.1932184 19.9945781,54.469669 21.5636367,54.469669 C21.9264766,54.469669 22.273457,54.4006809 22.5929102,54.2762983 L22.5929102,58.465544 L19.4792617,58.465544 C19.1105313,56.555286 17.6012852,55.0459296 15.6910234,54.6773131 L15.6910234,44.3311302 C17.1025078,45.7907563 19.2107852,46.7202271 21.5636367,46.7202271 C21.9092578,46.7202271 22.2528398,46.6994967 22.5929102,46.6598483 L22.5929102,48.9721407 Z M22.5929102,51.6241628 C22.5929102,52.1917008 22.1311758,52.6534343 21.5636367,52.6534343 C20.9960977,52.6534343 20.5343633,52.1917008 20.5343633,51.6241628 C20.5343633,51.0566249 20.9960977,50.5948914 21.5636367,50.5948914 C22.1311758,50.5948914 22.5929102,51.0566249 22.5929102,51.6241628 Z M22.5929102,37.23498 C21.3694727,37.5784481 20.9413828,38.9466564 20.6968086,39.7290884 C20.2988516,41.0028203 20.0901875,41.0285351 19.9382773,41.0292148 C19.8308867,40.9842422 19.5656953,40.6156258 19.5656953,39.9999434 C19.5656953,39.374179 19.8356445,39.0088476 19.9430352,38.9688594 C20.4130391,38.7940668 20.6525156,38.2711616 20.4777227,37.8011586 C20.303043,37.3311556 19.7801367,37.0915662 19.3100195,37.2664721 C18.6064297,37.5281513 18.077293,38.2169 17.8592266,39.0916561 L17.6889648,39.0916561 C17.1874688,39.0916561 16.7807891,39.4982217 16.7807891,39.9998301 C16.7807891,40.5014385 17.1873555,40.9080041 17.6889648,40.9080041 L17.8593398,40.9080041 C18.1435625,42.0450058 18.9512578,42.8453362 19.9291016,42.8453362 C21.6259414,42.8453362 22.1493008,41.1704762 22.4305781,40.270685 C22.4886914,40.0847909 22.5426133,39.9263107 22.5929102,39.7898071 L22.5929102,44.8252621 C22.2544258,44.8754456 21.9108437,44.9037658 21.5636367,44.9037658 C18.3254922,44.9038791 15.6910234,42.7040748 15.6910234,39.9999434 C15.6910234,37.2958119 18.3254922,35.0960076 21.5636367,35.0960076 C21.9108437,35.0960076 22.2544258,35.1243279 22.5929102,35.1745114 L22.5929102,37.23498 Z M22.5929102,25.7235884 C22.273457,25.5992059 21.9265898,25.5302177 21.5636367,25.5302177 C19.9945781,25.5302177 18.718125,26.8066683 18.718125,28.3757239 C18.718125,29.9447794 19.9945781,31.22123 21.5636367,31.22123 C21.9264766,31.22123 22.273457,31.1522419 22.5929102,31.0278593 L22.5929102,33.340265 C22.2529531,33.3005033 21.9092578,33.2798862 21.5636367,33.2798862 C19.2106719,33.2798862 17.1025078,34.209357 15.6910234,35.6689831 L15.6910234,25.3226869 C17.6012852,24.9539571 19.1106445,23.4446007 19.4792617,21.534456 L22.5929102,21.534456 L22.5929102,25.7235884 Z M22.5929102,28.3757239 C22.5929102,28.9432618 22.1311758,29.4049953 21.5636367,29.4049953 C20.9960977,29.4049953 20.5343633,28.9432618 20.5343633,28.3757239 C20.5343633,27.8081859 20.9960977,27.3464524 21.5636367,27.3464524 C22.1311758,27.3464524 22.5929102,27.8081859 22.5929102,28.3757239 Z M22.5929102,19.718108 L18.6576328,19.718108 C18.1561367,19.718108 17.749457,20.1246736 17.749457,20.626282 C17.749457,22.26206 16.4186289,23.5928856 14.7828477,23.5928856 C14.2813516,23.5928856 13.8746719,23.9994512 13.8746719,24.5010596 L13.8746719,55.4989404 C13.8746719,56.0004355 14.2812383,56.4071144 14.7828477,56.4071144 C16.4186289,56.4071144 17.749457,57.73794 17.749457,59.373718 C17.749457,59.8752131 18.1560234,60.281892 18.6576328,60.281892 L22.5929102,60.281892 L22.5929102,62.3403216 L11.8768438,62.3403216 C11.8434258,62.3403216 11.8163516,62.3132474 11.8163516,62.2798295 L11.8163516,17.7202837 C11.8163516,17.6868658 11.8434258,17.6597917 11.8768438,17.6597917 L22.5929102,17.6597917 L22.5929102,19.718108 Z M24.4091484,14.8141722 C24.4091484,13.7125142 25.3054297,12.8162347 26.4070898,12.8162347 L51.5929102,12.8162347 C52.6945703,12.8162347 53.5908516,13.7125142 53.5908516,14.8141722 L53.5908516,18.7494419 L24.4091484,18.7494419 L24.4091484,14.8141722 Z M53.5908516,65.1857145 C53.5908516,66.2873725 52.6945703,67.183652 51.5929102,67.183652 L26.4070898,67.183652 C25.3054297,67.183652 24.4091484,66.2873725 24.4091484,65.1857145 L24.4091484,61.2504448 L53.5908516,61.2504448 L53.5907383,65.1857145 L53.5908516,65.1857145 Z M53.5908516,59.4340968 L24.4091484,59.4340968 L24.4091484,20.5657899 L53.5908516,20.5657899 L53.5907383,26.4989971 L31.250543,26.4989971 C29.1473633,26.4989971 27.4363633,28.210107 27.4363633,30.3131693 L27.4363633,49.6868307 C27.4363633,51.7900063 29.1474766,53.5010029 31.250543,53.5010029 L53.5908516,53.5010029 L53.5908516,59.4340968 Z M66.1837617,49.6867174 C66.1837617,50.7883754 65.2874805,51.6846549 64.1858203,51.6846549 L31.250543,51.6846549 C30.1488828,51.6846549 29.2526016,50.7883754 29.2526016,49.6867174 L29.2526016,30.3131693 C29.2526016,29.2115113 30.1488828,28.3152318 31.250543,28.3152318 L54.4942695,28.3152318 C54.4958555,28.3152318 54.4974414,28.3154584 54.4990273,28.3154584 C54.5006133,28.3154584 54.5021992,28.3152318 54.5037852,28.3152318 L64.1859336,28.3152318 C65.2875938,28.3152318 66.183875,29.2115113 66.183875,30.3131693 L66.183875,49.6867174 L66.1837617,49.6867174 Z" id="Shape" fill="#F03226" fill-rule="nonzero"></path>
                            <path d="M46.4146971,40.4915254 L42.3988623,40.4915254 C41.8791107,40.4915254 41.4576271,40.9316114 41.4576271,41.4745763 C41.4576271,42.0175411 41.8789933,42.4576271 42.3988623,42.4576271 L46.4146971,42.4576271 C46.9344486,42.4576271 47.3559322,42.0175411 47.3559322,41.4745763 C47.3559322,40.9316114 46.9344486,40.4915254 46.4146971,40.4915254 Z" id="Shape" fill="#F03226" fill-rule="nonzero"></path>
                            <path d="M37.5672394,40.4915254 L33.5514046,40.4915254 C33.0316531,40.4915254 32.6101695,40.9316114 32.6101695,41.4745763 C32.6101695,42.0175411 33.0315357,42.4576271 33.5514046,42.4576271 L37.5672394,42.4576271 C38.086991,42.4576271 38.5084746,42.0175411 38.5084746,41.4745763 C38.5084746,40.9316114 38.086991,40.4915254 37.5672394,40.4915254 Z" id="Shape" fill="#F03226" fill-rule="nonzero"></path>
                            <path d="M49.3538371,44.4237288 L47.3242477,44.4237288 C46.7989017,44.4237288 46.3728814,44.8638148 46.3728814,45.4067797 C46.3728814,45.9497445 46.798783,46.3898305 47.3242477,46.3898305 L49.3537184,46.3898305 C49.8790644,46.3898305 50.3050847,45.9497445 50.3050847,45.4067797 C50.3050847,44.8638148 49.8791831,44.4237288 49.3538371,44.4237288 Z" id="Shape" fill="#F03226" fill-rule="nonzero"></path>
                            <path d="M38.6722945,47.3728814 L33.4294004,47.3728814 C32.9770198,47.3728814 32.6101695,47.8129674 32.6101695,48.3559322 C32.6101695,48.898897 32.9769176,49.3389831 33.4294004,49.3389831 L38.6722945,49.3389831 C39.1246751,49.3389831 39.4915254,48.898897 39.4915254,48.3559322 C39.4915254,47.8129674 39.1247773,47.3728814 38.6722945,47.3728814 Z" id="Shape" fill="#F03226" fill-rule="nonzero"></path>
                            <path d="M47.3937101,47.3728814 L44.3690018,47.3728814 C43.8470206,47.3728814 43.4237288,47.8129674 43.4237288,48.3559322 C43.4237288,48.898897 43.8469026,49.3389831 44.3690018,49.3389831 L47.3937101,49.3389831 C47.9156913,49.3389831 48.3389831,48.898897 48.3389831,48.3559322 C48.3389831,47.8129674 47.9158092,47.3728814 47.3937101,47.3728814 Z" id="Shape" fill="#F03226" fill-rule="nonzero"></path>
                            <path d="M55.2520235,44.4237288 L53.2225528,44.4237288 C52.6972068,44.4237288 52.2711864,44.8638148 52.2711864,45.4067797 C52.2711864,45.9497445 52.6970881,46.3898305 53.2225528,46.3898305 L55.2520235,46.3898305 C55.7773695,46.3898305 56.2033898,45.9497445 56.2033898,45.4067797 C56.2033898,44.8638148 55.7773695,44.4237288 55.2520235,44.4237288 Z" id="Shape" fill="#F03226" fill-rule="nonzero"></path>
                            <path d="M62.1435106,40.4915254 L58.1276758,40.4915254 C57.6079243,40.4915254 57.1864407,40.9316114 57.1864407,41.4745763 C57.1864407,42.0175411 57.6078069,42.4576271 58.1276758,42.4576271 L62.1435106,42.4576271 C62.6632621,42.4576271 63.0847458,42.0175411 63.0847458,41.4745763 C63.0847458,40.9316114 62.6633796,40.4915254 62.1435106,40.4915254 Z" id="Shape" fill="#F03226" fill-rule="nonzero"></path>
                            <path d="M53.296053,40.4915254 L49.2802182,40.4915254 C48.7604667,40.4915254 48.3389831,40.9316114 48.3389831,41.4745763 C48.3389831,42.0175411 48.7603493,42.4576271 49.2802182,42.4576271 L53.296053,42.4576271 C53.8158045,42.4576271 54.2372881,42.0175411 54.2372881,41.4745763 C54.2372881,40.9316114 53.8159219,40.4915254 53.296053,40.4915254 Z" id="Shape" fill="#F03226" fill-rule="nonzero"></path>
                            <path d="M37.7984958,32.6271186 L34.3031991,32.6271186 C33.3696212,32.6271186 32.6101695,33.4996893 32.6101695,34.5723218 L32.6101695,36.5802205 C32.6101695,37.6528531 33.3696212,38.5254237 34.3031991,38.5254237 L37.7984958,38.5254237 C38.7320737,38.5254237 39.4915254,37.6528531 39.4915254,36.5802205 L39.4915254,34.5723218 C39.4915254,33.4996893 38.7320737,32.6271186 37.7984958,32.6271186 Z M37.8530636,36.5802205 C37.8530636,36.6148557 37.8286409,36.642916 37.7984958,36.642916 L34.3031991,36.642916 C34.273054,36.642916 34.2486314,36.6148557 34.2486314,36.5802205 L34.2486314,34.5723218 C34.2486314,34.5376867 34.273054,34.5096264 34.3031991,34.5096264 L37.7984958,34.5096264 C37.8286409,34.5096264 37.8530636,34.5376867 37.8530636,34.5723218 L37.8530636,36.5802205 Z" id="Shape" fill="#F03226" fill-rule="nonzero"></path>
                            <path d="M60.1594695,30.6610169 C59.2180815,30.6610169 58.3534207,30.9556256 57.6779661,31.4455161 C57.0025115,30.9556256 56.1378507,30.6610169 55.1964627,30.6610169 C53.0413691,30.6610169 51.2881356,32.2045703 51.2881356,34.1016949 C51.2881356,35.9988195 53.0414852,37.5423729 55.1964627,37.5423729 C56.1378507,37.5423729 57.0025115,37.2477642 57.6779661,36.7578738 C58.3534207,37.2477642 59.2180815,37.5423729 60.1594695,37.5423729 C62.3145631,37.5423729 64.0677966,35.9988195 64.0677966,34.1016949 C64.0677966,32.2045703 62.3145631,30.6610169 60.1594695,30.6610169 Z M56.5601404,35.4423024 C56.1976306,35.7283273 55.7205524,35.9039889 55.1965788,35.9039889 C54.0677258,35.9039889 53.1493211,35.0954755 53.1493211,34.1016949 C53.1493211,33.1079143 54.0677258,32.299401 55.1965788,32.299401 C55.7205524,32.299401 56.1976306,32.4750625 56.5601404,32.7610874 C56.3614159,33.1733148 56.2512584,33.6263152 56.2512584,34.1016949 C56.2512584,34.5770746 56.3611837,35.0300751 56.5601404,35.4423024 Z M60.1594695,35.9039889 C59.6354959,35.9039889 59.1584177,35.7283273 58.7959079,35.4423024 C58.9946324,35.0300751 59.104906,34.5770746 59.104906,34.1016949 C59.104906,33.6263152 58.9948646,33.1733148 58.7959079,32.7610874 C59.1583016,32.4750625 59.6354959,32.299401 60.1594695,32.299401 C61.2883225,32.299401 62.2067271,33.1079143 62.2067271,34.1016949 C62.2067271,35.0954755 61.2883225,35.9039889 60.1594695,35.9039889 Z" id="Shape" fill="#F03226" fill-rule="nonzero"></path>
                            <path d="M14.9152542,58.1864407 C14.3752411,58.1864407 13.9322034,58.6294509 13.9322034,59.1694305 C13.9322034,59.7094102 14.3752411,60.1525424 14.9152542,60.1525424 C15.4552674,60.1525424 15.8983051,59.7095322 15.8983051,59.1694305 C15.898427,58.6294509 15.4553894,58.1864407 14.9152542,58.1864407 Z" id="Shape" fill="#F03226" fill-rule="nonzero"></path>
                            <path d="M14.9152542,18.8644068 C14.3752411,18.8644068 13.9322034,19.3074445 13.9322034,19.8474576 C13.9322034,20.3874708 14.3752411,20.8305085 14.9152542,20.8305085 C15.4552674,20.8305085 15.8983051,20.3874708 15.8983051,19.8474576 C15.8983051,19.3074445 15.4553894,18.8644068 14.9152542,18.8644068 Z" id="Shape" fill="#F03226" fill-rule="nonzero"></path>
                        </g>
                    </g>
                </g>
            </g>
        </g>
    </g>
</svg>