<?xml version="1.0" encoding="UTF-8"?>
<svg width="60px" height="60px" viewBox="0 0 60 60" version="1.1" xmlns="http://www.w3.org/2000/svg" xmlns:xlink="http://www.w3.org/1999/xlink">
    <!-- Generator: sketchtool 49.1 (51147) - http://www.bohemiancoding.com/sketch -->
    <title>267DFC46-0E0E-433D-B074-CC1F79A18B38</title>
    <desc>Created with sketchtool.</desc>
    <defs></defs>
    <g id="Design" stroke="none" stroke-width="1" fill="none" fill-rule="evenodd">
        <g id="Ab-invest-1_4-05" transform="translate(-540.000000, -959.000000)" fill="#F03226" fill-rule="nonzero">
            <g id="advantages" transform="translate(0.000000, 700.000000)">
                <g id="2" transform="translate(540.000000, 259.000000)">
                    <g id="easy-icon">
                        <path d="M34.990104,16.6145114 C35.1328067,16.2372973 35.4980457,15.9668607 35.9251559,15.9668607 C36.4750104,15.9668607 36.9230769,16.4149272 36.9230769,16.9647817 L38.9189189,16.9647817 C38.9189189,15.3142204 37.5757173,13.9710187 35.9251559,13.9710187 C34.2745946,13.9710187 32.9313929,15.3142204 32.9313929,16.9647817 C32.9313929,17.2292308 33.0361746,17.4837006 33.2237838,17.6703119 L36.8602079,21.306736 C36.7175052,21.6839501 36.3522661,21.9543867 35.9251559,21.9543867 C35.3753015,21.9543867 34.9272349,21.5063202 34.9272349,20.9564657 L32.9313929,20.9564657 C32.9313929,22.607027 34.2745946,23.9502287 35.9251559,23.9502287 C37.5757173,23.9502287 38.9189189,22.607027 38.9189189,20.9564657 C38.9189189,20.6920166 38.8141372,20.4375468 38.6265281,20.2509356 L34.990104,16.6145114 Z" id="Shape"></path>
                        <path d="M35.9251559,9.97933472 C34.8743451,9.97933472 33.8694387,10.1699376 32.9313929,10.5032432 L32.9313929,4.98972973 C32.9313929,2.23846154 30.6930561,0.000124740125 27.9417879,0.000124740125 L4.98960499,0.000124740125 C2.2383368,0.000124740125 0,2.23846154 0,4.98972973 L0,46.9024116 C0,49.6536798 2.2383368,51.8920166 4.98960499,51.8920166 L11.975052,51.8920166 C11.975052,52.1564657 12.0798337,52.4109356 12.2674428,52.5975468 L15.966736,56.2968399 L15.966736,59.8753846 L17.962578,59.8753846 L17.962578,55.8837006 C17.962578,55.6192516 17.8577963,55.3647817 17.6701871,55.1781705 L13.970894,51.4788773 L13.970894,47.0640748 L14.917921,44.2239917 C14.9518503,44.1222037 14.968815,44.0154262 14.968815,43.9086486 L14.968815,29.9377547 C14.968815,29.3879002 15.4168815,28.9398337 15.966736,28.9398337 C16.5165904,28.9398337 16.964657,29.3879002 16.964657,29.9377547 L16.964657,38.9190437 L16.964657,43.9086486 L16.964657,44.9065696 L18.960499,44.9065696 L18.960499,43.9086486 L18.960499,38.9190437 C18.960499,38.3691892 19.4085655,37.9211227 19.95842,37.9211227 C20.5082744,37.9211227 20.956341,38.3691892 20.956341,38.9190437 L20.956341,41.9128067 L20.956341,44.9065696 L22.952183,44.9065696 L22.952183,41.9128067 L22.952183,38.9190437 C22.952183,38.3691892 23.4002495,37.9211227 23.950104,37.9211227 C24.4999584,37.9211227 24.9480249,38.3691892 24.9480249,38.9190437 L24.9480249,39.9169647 L24.9480249,43.9086486 L24.9480249,44.9065696 L26.9438669,44.9065696 L26.9438669,43.9086486 L26.9438669,39.9169647 C26.9438669,39.3671102 27.3919335,38.9190437 27.9417879,38.9190437 C28.4916424,38.9190437 28.9397089,39.3671102 28.9397089,39.9169647 L28.9397089,41.9128067 L28.9397089,44.9065696 L30.9355509,44.9065696 L30.9355509,41.9128067 C30.9355509,41.3629522 31.3836175,40.9148857 31.9334719,40.9148857 C32.4833264,40.9148857 32.9313929,41.3629522 32.9313929,41.9128067 L32.9313929,47.7386694 L29.9885239,56.5662786 C29.9545946,56.6680665 29.9376299,56.7748441 29.9376299,56.8816216 L29.9376299,59.8753846 L31.9334719,59.8753846 L31.9334719,57.0432848 L34.876341,48.2156757 C34.9102703,48.1138877 34.9272349,48.0071102 34.9272349,47.9003326 L34.9272349,41.9128067 C34.9272349,40.6135135 34.0899792,39.5158004 32.9313929,39.1026611 L32.9313929,27.4180042 C33.8694387,27.7513098 34.8743451,27.9419127 35.9251559,27.9419127 C40.8768399,27.9419127 44.9064449,23.9123077 44.9064449,18.9606237 C44.9064449,14.0089397 40.8768399,9.97933472 35.9251559,9.97933472 Z M1.995842,4.98972973 C1.995842,3.3391684 3.33904366,1.99596674 4.98960499,1.99596674 L27.9417879,1.99596674 C29.5923493,1.99596674 30.9355509,3.3391684 30.9355509,4.98972973 L30.9355509,5.98765073 L1.995842,5.98765073 L1.995842,4.98972973 Z M12.0259459,46.5870686 C11.9920166,46.6888565 11.975052,46.7956341 11.975052,46.9024116 L11.975052,49.8961746 L4.98960499,49.8961746 C3.33904366,49.8961746 1.995842,48.552973 1.995842,46.9024116 L1.995842,43.9086486 L12.9190852,43.9086486 L12.0259459,46.5870686 Z M15.966736,26.9439917 C14.3161746,26.9439917 12.972973,28.2871933 12.972973,29.9377547 L12.972973,30.9356757 L10.977131,30.9356757 C10.4272765,30.9356757 9.97920998,30.4876091 9.97920998,29.9377547 L9.97920998,25.9460707 C9.97920998,25.3962162 10.4272765,24.9481497 10.977131,24.9481497 L20.956341,24.9481497 C21.5061954,24.9481497 21.954262,25.3962162 21.954262,25.9460707 L21.954262,29.9377547 C21.954262,30.4876091 21.5061954,30.9356757 20.956341,30.9356757 L18.960499,30.9356757 L18.960499,29.9377547 C18.960499,28.2871933 17.6172973,26.9439917 15.966736,26.9439917 Z M30.9355509,39.0896881 C30.9016216,39.1016632 30.871684,39.1196258 30.8387526,39.1325988 C30.8327651,39.1345946 30.8257796,39.1355925 30.8197921,39.1385863 C30.4755094,37.866237 29.3219127,36.9232017 27.9417879,36.9232017 C27.4059044,36.9232017 26.9099376,37.0758836 26.4738462,37.323368 C25.9429522,36.4861123 25.0128898,35.9252807 23.950104,35.9252807 C23.1807069,35.9252807 22.4851559,36.2256549 21.954262,36.703659 C21.423368,36.224657 20.727817,35.9252807 19.95842,35.9252807 C19.6071518,35.9252807 19.2738462,35.997131 18.960499,36.1088981 L18.960499,32.9315177 L20.956341,32.9315177 C22.6069023,32.9315177 23.950104,31.588316 23.950104,29.9377547 L23.950104,25.9460707 C23.950104,24.2955094 22.6069023,22.9523077 20.956341,22.9523077 L10.977131,22.9523077 C9.32656965,22.9523077 7.98336798,24.2955094 7.98336798,25.9460707 L7.98336798,29.9377547 C7.98336798,31.588316 9.32656965,32.9315177 10.977131,32.9315177 L12.972973,32.9315177 L12.972973,41.9128067 L1.995842,41.9128067 L1.995842,7.98349272 L30.9355509,7.98349272 L30.9355509,11.4981705 C30.6391684,11.6967568 30.3587526,11.9162994 30.088316,12.148815 C30.0513929,12.1807484 30.0174636,12.2136798 29.9815385,12.2466112 C29.7560083,12.4471933 29.5404574,12.6577547 29.3358836,12.8792931 C29.2949688,12.9241996 29.2540541,12.9681081 29.2131393,13.0140125 C28.9955925,13.259501 28.7900208,13.5149688 28.5994179,13.7834096 C28.5934304,13.7923909 28.5864449,13.8003742 28.5794595,13.8093555 C28.1713098,14.3891476 27.8330146,15.0178378 27.5705613,15.6864449 C27.5555925,15.723368 27.5436175,15.761289 27.5296466,15.7982121 C27.4238669,16.0776299 27.3330561,16.3620374 27.2552183,16.6534304 C27.2362578,16.7252807 27.2172973,16.797131 27.1993347,16.8699792 C27.1354678,17.1344283 27.0855717,17.402869 27.0466528,17.6762994 C27.0346778,17.7581289 27.018711,17.8379626 27.0097297,17.9197921 C26.9698129,18.262079 26.9438669,18.6083576 26.9438669,18.9606237 C26.9438669,19.3128898 26.9698129,19.6591684 27.0097297,20.0014553 C27.0197089,20.0832848 27.0346778,20.1631185 27.0466528,20.244948 C27.0855717,20.5173805 27.1364657,20.7868191 27.1993347,21.0512682 C27.2172973,21.1241164 27.2352599,21.1949688 27.2552183,21.267817 C27.3330561,21.55921 27.4238669,21.8446154 27.5296466,22.1230353 C27.5436175,22.1599584 27.5565904,22.1978794 27.5705613,22.2348025 C27.8340125,22.9034096 28.1723077,23.5320998 28.5794595,24.1118919 C28.585447,24.1208732 28.5924324,24.1288565 28.5994179,24.1378378 C28.7900208,24.4062786 28.9955925,24.6617464 29.2131393,24.9072349 C29.2530561,24.9531393 29.2939709,24.9970478 29.3358836,25.0419543 C29.5404574,25.2634927 29.7550104,25.475052 29.9815385,25.6746362 C30.0174636,25.7065696 30.0523909,25.740499 30.088316,25.7724324 C30.3587526,26.0039501 30.6391684,26.2234927 30.9355509,26.4230769 L30.9355509,39.0896881 Z M35.9251559,25.9460707 C34.6408316,25.9460707 33.4403326,25.5918087 32.4044906,24.9840748 C32.16,24.8413721 31.9274844,24.6837006 31.704948,24.5140541 C31.6839917,24.4980873 31.6620374,24.4831185 31.642079,24.4671518 C31.1730561,24.1009148 30.7549272,23.6797921 30.3976715,23.2157588 C30.3856965,23.1997921 30.3747193,23.1848233 30.3627443,23.1688565 C30.1881081,22.9383368 30.0264449,22.6978378 29.8817464,22.4483576 C29.8807484,22.4463617 29.8787526,22.4443659 29.8777547,22.4423701 C29.5853638,21.9364241 29.3598337,21.3935551 29.2011642,20.8287318 C29.1891892,20.7838254 29.1782121,20.7389189 29.166237,20.6940125 C29.1073597,20.4674844 29.0624532,20.2359667 29.0265281,20.0034511 C29.0165489,19.9395842 29.0045738,19.8757173 28.9975884,19.8118503 C28.9616632,19.5304366 28.9397089,19.247027 28.9397089,18.9606237 C28.9397089,18.6742204 28.9616632,18.3908108 28.9965904,18.110395 C29.0045738,18.0455301 29.0165489,17.9826611 29.0255301,17.9187942 C29.0614553,17.6852807 29.1063617,17.4547609 29.1652391,17.2282328 C29.1772141,17.1833264 29.1871933,17.13842 29.2001663,17.0935135 C29.3588358,16.5286902 29.5843659,15.9858212 29.8767568,15.4798753 C29.8777547,15.4778794 29.8797505,15.4758836 29.8807484,15.4738877 C30.025447,15.2244075 30.1871102,14.9839085 30.3617464,14.7533888 C30.3737214,14.737422 30.3846985,14.7224532 30.3966736,14.7064865 C30.7549272,14.2414553 31.1720582,13.8203326 31.6410811,13.4550936 C31.6620374,13.4391268 31.6829938,13.424158 31.7039501,13.4081913 C31.9264865,13.2385447 32.1590021,13.0818711 32.4034927,12.9381705 C33.4403326,12.3294387 34.6408316,11.9751767 35.9251559,11.9751767 C39.777131,11.9751767 42.9106029,15.1086486 42.9106029,18.9606237 C42.9106029,22.8125988 39.777131,25.9460707 35.9251559,25.9460707 Z" id="Shape"></path>
                        <path d="M59.582869,17.2571726 L55.591185,13.2654886 L54.1801247,14.6765489 L56.4683576,16.9647817 L46.9022869,16.9647817 L46.9022869,18.9606237 L56.4683576,18.9606237 L54.1801247,21.2488565 L55.591185,22.6599168 L59.582869,18.6682328 C59.9730561,18.2780457 59.9730561,17.6473597 59.582869,17.2571726 Z" id="Shape"></path>
                        <path d="M15.966736,14.9689397 C14.2303534,14.9689397 12.9709771,15.7193763 12.3742204,16.1664449 L13.5717256,17.7631185 C13.9688981,17.465738 14.8091476,16.9647817 15.966736,16.9647817 C16.4637006,16.9647817 17.4356757,17.0685655 18.3617464,17.7631185 L19.5592516,16.1664449 C18.1701455,15.1246154 16.712183,14.9689397 15.966736,14.9689397 Z" id="Shape"></path>
                        <path d="M15.966736,10.9772557 C12.7823701,10.9772557 10.4731809,12.3523909 9.38045738,13.1726819 L10.5779626,14.7693555 C11.4720998,14.0987526 13.3611642,12.9730977 15.966736,12.9730977 C17.0844075,12.9730977 19.2718503,13.2066112 21.3555094,14.7693555 L22.5530146,13.171684 C20.0053222,11.2626611 17.3328898,10.9772557 15.966736,10.9772557 Z" id="Shape"></path>
                        <rect id="Rectangle-path" x="14.968815" y="18.9606237" width="1.995842" height="1.995842"></rect>
                    </g>
                </g>
            </g>
        </g>
    </g>
</svg>