<?xml version="1.0" encoding="UTF-8"?>
<svg width="60px" height="48px" viewBox="0 0 60 48" version="1.1" xmlns="http://www.w3.org/2000/svg" xmlns:xlink="http://www.w3.org/1999/xlink">
    <!-- Generator: sketchtool 49.1 (51147) - http://www.bohemiancoding.com/sketch -->
    <title>DC9A5D30-F33C-42AD-968E-FDAF1F35B8C9</title>
    <desc>Created with sketchtool.</desc>
    <defs></defs>
    <g id="Design" stroke="none" stroke-width="1" fill="none" fill-rule="evenodd">
        <g id="Ab-invest-5_10-05" transform="translate(-151.000000, -5587.000000)" fill="#F03226" fill-rule="nonzero">
            <g id="faq-ico" transform="translate(151.000000, 5587.000000)">
                <path d="M56.8965517,6.17941977 L43.4482759,6.17941977 L43.4482759,3.08970989 C43.4482759,1.38328886 42.0588362,0 40.3448276,0 L3.10344832,0 C1.3894397,0 4.97622486e-08,1.38328886 4.97622486e-08,3.08970989 L4.97622486e-08,40.0632382 C-0.000129260582,40.4797053 0.251767291,40.8553626 0.638275911,41.0148688 C1.02491384,41.1743751 1.47000005,41.0860609 1.76586212,40.7913798 L11.704138,30.8970989 L16.5517242,30.8970989 L16.5517242,46.242658 C16.5515949,46.6591251 16.8034914,47.0347823 17.19,47.1942886 C17.576638,47.3537949 18.0217242,47.2654807 18.3175862,46.9707996 L28.2558621,37.0765186 L56.8965517,37.0765186 C58.6105603,37.0765186 60,35.6932298 60,33.9868088 L60,9.26912966 C60,7.56283738 58.6105603,6.17941977 56.8965517,6.17941977 Z M16.5517242,9.26912966 L16.5517242,28.8372923 L11.2758621,28.8372923 C11.0014656,28.8372923 10.7384483,28.9459471 10.5444828,29.1390539 L2.06896557,37.5770516 L2.06896557,3.08970989 C2.06896557,2.52094579 2.53215522,2.05980659 3.10344832,2.05980659 L40.3448276,2.05980659 C40.9161207,2.05980659 41.3793104,2.52094579 41.3793104,3.08970989 L41.3793104,6.17941977 L19.6551724,6.17941977 C17.9411638,6.17941977 16.5517242,7.56283738 16.5517242,9.26912966 Z M57.9310345,33.9868088 C57.9310345,34.5555729 57.4678448,35.0167121 56.8965517,35.0167121 L27.8275862,35.0167121 C27.5531897,35.0167121 27.2901724,35.1253669 27.0962069,35.3184737 L18.6206897,43.7564714 L18.6206897,9.26912966 C18.6206897,8.70036557 19.0838793,8.23922637 19.6551724,8.23922637 L56.8965517,8.23922637 C57.4678448,8.23922637 57.9310345,8.70036557 57.9310345,9.26912966 L57.9310345,33.9868088 Z" id="Shape"></path>
                <path d="M34.95956,25.6353637 L34.95956,16.6361137 C34.95956,14.9793767 33.576972,13.6363636 31.8714155,13.6363636 L26.7245081,13.6363636 C25.0189516,13.6363636 23.6363636,14.9793767 23.6363636,16.6361137 L23.6363636,25.6353637 C23.6363636,27.2921007 25.0189516,28.6351137 26.7245081,28.6351137 L31.8714155,28.6351137 C32.330005,28.6333639 32.7821608,28.5308724 33.1941708,28.3351387 L34.9080909,30 L36.3636364,28.5861178 L34.6507456,26.9202566 C34.852247,26.520165 34.9577586,26.0808266 34.95956,25.6353637 Z M32.900797,25.2213982 L30.5404253,22.9285893 L29.0848799,24.3424715 L31.4452516,26.6352804 L26.7245081,26.6352804 C26.1560322,26.6352804 25.6951266,26.1875677 25.6951266,25.6353637 L25.6951266,16.6361137 C25.6951266,16.0839097 26.1560322,15.636197 26.7245081,15.636197 L31.8714155,15.636197 C32.4398915,15.636197 32.900797,16.0839097 32.900797,16.6361137 L32.900797,25.2213982 Z" id="Shape"></path>
                <rect id="Rectangle-path" x="37.2727273" y="20.9090909" width="4.54545455" height="1.81818182"></rect>
                <path d="M52.6363636,13.6363636 L44.6363636,13.6363636 C44.0841136,13.6363636 43.6363636,14.0976818 43.6363636,14.6666667 L43.6363636,29.0909091 L45.6363636,29.0909091 L45.6363636,21.8787879 L51.6363636,21.8787879 L51.6363636,29.0909091 L53.6363636,29.0909091 L53.6363636,14.6666667 C53.6363636,14.0976818 53.1886136,13.6363636 52.6363636,13.6363636 Z M51.6363636,19.8181818 L45.6363636,19.8181818 L45.6363636,15.6969697 L51.6363636,15.6969697 L51.6363636,19.8181818 Z" id="Shape"></path>
                <rect id="Rectangle-path" x="6.36363636" y="6.36363636" width="4.54545455" height="1.81818182"></rect>
                <rect id="Rectangle-path" x="12.7272727" y="6.36363636" width="2.72727273" height="1.81818182"></rect>
                <rect id="Rectangle-path" x="6.36363636" y="10.9090909" width="9.09090909" height="1.81818182"></rect>
                <rect id="Rectangle-path" x="6.36363636" y="16.3636364" width="9.09090909" height="1.81818182"></rect>
                <rect id="Rectangle-path" x="6.36363636" y="21.8181818" width="1.81818182" height="1.81818182"></rect>
                <rect id="Rectangle-path" x="10" y="21.8181818" width="5.45454545" height="1.81818182"></rect>
            </g>
        </g>
    </g>
</svg>