<?xml version="1.0" encoding="UTF-8"?>
<svg width="20px" height="22px" viewBox="0 0 20 22" version="1.1" xmlns="http://www.w3.org/2000/svg" xmlns:xlink="http://www.w3.org/1999/xlink">
    <!-- Generator: sketchtool 49.1 (51147) - http://www.bohemiancoding.com/sketch -->
    <title>65F7C057-27A1-4198-9F75-2CB19AFA3A8A</title>
    <desc>Created with sketchtool.</desc>
    <defs></defs>
    <g id="Design" stroke="none" stroke-width="1" fill="none" fill-rule="evenodd" opacity="1">
        <g id="Ab-invest-1_10-05" transform="translate(-469.000000, -6284.000000)" fill="#fff" fill-rule="nonzero">
            <g id="footer" transform="translate(-1.000000, 6265.000000)">
                <g id="google-play-btn" transform="translate(450.000000, 0.000000)">
                    <g id="google-play" transform="translate(20.000000, 19.000000)">
                        <path d="M0.0879678483,1.04761905 C0.0879678483,1.04761905 10.5263158,11.0138084 10.5263158,11.0138843 L0.0859291085,20.952381 C0.0357157015,20.7699884 0,20.5731805 0,20.3493627 L0,1.65822436 C0,1.43099239 0.0357157015,1.23206009 0.0879678483,1.04761905 Z M14.7368421,6.68276892 C14.7368421,6.68276892 11.634287,9.42857143 11.634287,9.42857143 L1.05263158,0.041256832 C1.46057974,-0.0558673043 1.94344159,0.0147166834 2.43392438,0.293210361 L14.7368421,6.68276892 Z M19.0837171,9.11561294 C20.0197701,9.6442741 20.5719778,11.0400585 19.0581224,11.9071818 L15.9569566,13.6190476 L12.6315789,10.4416528 L15.8963728,7.33333333 L19.0837171,9.11561294 Z M1.05263158,21.9505972 C1.05263158,21.9505972 11.5936763,12.5714998 11.5936763,12.5714286 L14.7368421,15.3762412 L2.45749755,21.708097 C1.95700552,21.9940407 1.46477919,22.0588499 1.05263158,21.9505972 Z" id="Combined-Shape"></path>
                    </g>
                </g>
            </g>
        </g>
    </g>
</svg>
