<?xml version="1.0" encoding="UTF-8"?>
<svg width="19px" height="21px" viewBox="0 0 19 21" version="1.1" xmlns="http://www.w3.org/2000/svg" xmlns:xlink="http://www.w3.org/1999/xlink">
    <!-- Generator: sketchtool 49.1 (51147) - http://www.bohemiancoding.com/sketch -->
    <title>F3E43502-2771-4CF6-9DC8-8790955CBBD4</title>
    <desc>Created with sketchtool.</desc>
    <defs></defs>
    <g id="Design" stroke="none" stroke-width="1" fill-rule="evenodd" opacity="0.400000006">
        <g id="Ab-invest-1_4-05" transform="translate(-354.000000, -5100.000000)" fill="#6D7986" fill-rule="nonzero">
            <g id="where-1tab-1step" transform="translate(147.000000, 4829.000000)">
                <g id="step-1-block" transform="translate(3.000000, 210.000000)">
                    <g id="googleplay-btn" transform="translate(184.000000, 43.000000)">
                        <g id="google-play" transform="translate(20.000000, 18.000000)">
                            <path d="M0.0835694559,1 C0.0835694559,1 10,10.5131808 10,10.5132532 L0.0816326531,20 C0.0339299164,19.825898 0,19.6380359 0,19.4243917 L0,1.58285052 C0,1.36594728 0.0339299164,1.17605736 0.0835694559,1 Z M14,6.3790067 C14,6.3790067 11.0525727,9 11.0525727,9 L1,0.0393815214 C1.38755075,-0.0533278814 1.84626951,0.0140477432 2.31222816,0.279882617 L14,6.3790067 Z M18.1295312,8.7012669 C19.0187816,9.20589801 19.5433789,10.5382377 18.1052163,11.3659463 L15.1591088,13 L12,9.96703219 L15.1015542,7 L18.1295312,8.7012669 Z M1,20.9528428 C1,20.9528428 11.0139925,12.000068 11.0139925,12 L14,14.6773211 L2.33462267,20.7213653 C1.85915524,20.9943116 1.39154023,21.0561749 1,20.9528428 Z" id="Combined-Shape"></path>
                        </g>
                    </g>
                </g>
            </g>
        </g>
    </g>
</svg>
