<?xml version="1.0" encoding="UTF-8"?>
<svg width="60px" height="60px" viewBox="0 0 60 60" version="1.1" xmlns="http://www.w3.org/2000/svg" xmlns:xlink="http://www.w3.org/1999/xlink">
    <!-- Generator: sketchtool 49.1 (51147) - http://www.bohemiancoding.com/sketch -->
    <title>EA1E8CAE-A594-44A8-A2D9-ABF22236A9ED</title>
    <desc>Created with sketchtool.</desc>
    <defs></defs>
    <g id="Design" stroke="none" stroke-width="1" fill="none" fill-rule="evenodd">
        <g id="Ab-invest-1_4-05" transform="translate(-150.000000, -959.000000)" fill="#F03226" fill-rule="nonzero">
            <g id="advantages" transform="translate(0.000000, 700.000000)">
                <g id="1" transform="translate(150.000000, 259.000000)">
                    <g id="high-icon">
                        <path d="M48,0 C46.346,0 45,1.346 45,3 C45,4.654 46.346,6 48,6 C49.654,6 51,4.654 51,3 C51,1.346 49.654,0 48,0 Z M48,4 C47.449,4 47,3.552 47,3 C47,2.448 47.449,2 48,2 C48.551,2 49,2.448 49,3 C49,3.552 48.551,4 48,4 Z" id="Shape"></path>
                        <rect id="Rectangle-path" transform="translate(51.999255, 7.000409) rotate(-45.000000) translate(-51.999255, -7.000409) " x="43.5138988" y="6.00041895" width="16.9707122" height="1.99998082"></rect>
                        <path d="M56,8 C54.346,8 53,9.346 53,11 C53,12.654 54.346,14 56,14 C57.654,14 59,12.654 59,11 C59,9.346 57.654,8 56,8 Z M56,12 C55.449,12 55,11.552 55,11 C55,10.448 55.449,10 56,10 C56.551,10 57,10.448 57,11 C57,11.552 56.551,12 56,12 Z" id="Shape"></path>
                        <path d="M59,16 L53,16 C52.448,16 52,16.447 52,17 L52,58 L47,58 L47,25 C47,24.447 46.552,24 46,24 L40,24 C39.448,24 39,24.447 39,25 L39,58 L34,58 L34,33 C34,32.447 33.552,32 33,32 L27,32 C26.448,32 26,32.447 26,33 L26,58 L21,58 L21,41 C21,40.447 20.552,40 20,40 L14,40 C13.448,40 13,40.447 13,41 L13,58 L8,58 L8,49 C8,48.447 7.552,48 7,48 L1,48 C0.448,48 0,48.447 0,49 L0,58 L0,59 L0,60 L1,60 L7,60 L14,60 L20,60 L27,60 L33,60 L40,60 L46,60 L53,60 L59,60 L60,60 L60,59 L60,58 L60,17 C60,16.447 59.552,16 59,16 Z M6,58 L2,58 L2,50 L6,50 L6,58 Z M19,58 L15,58 L15,42 L19,42 L19,58 Z M32,58 L28,58 L28,34 L32,34 L32,58 Z M45,58 L41,58 L41,26 L45,26 L45,58 Z M58,58 L54,58 L54,18 L58,18 L58,58 Z" id="Shape"></path>
                        <path d="M44,14 L38,14 L38,16 L41.586,16 L30,27.586 L25.707,23.293 C25.316,22.902 24.684,22.902 24.293,23.293 L3.293,44.293 L4.707,45.707 L25,25.414 L29.293,29.707 C29.684,30.098 30.316,30.098 30.707,29.707 L43,17.414 L43,21 L45,21 L45,15 C45,14.447 44.552,14 44,14 Z" id="Shape"></path>
                    </g>
                </g>
            </g>
        </g>
    </g>
</svg>