<?xml version="1.0" encoding="UTF-8"?>
<svg width="26px" height="26px" viewBox="0 0 26 26" version="1.1" xmlns="http://www.w3.org/2000/svg" xmlns:xlink="http://www.w3.org/1999/xlink">
    <!-- Generator: sketchtool 49.1 (51147) - http://www.bohemiancoding.com/sketch -->
    <title>609C1257-4713-46F4-8BEB-5320AD5A4B4C</title>
    <desc>Created with sketchtool.</desc>
    <defs></defs>
    <g id="Design" stroke="none" stroke-width="1" fill="none" fill-rule="evenodd">
        <g id="Ab-invest-9_10-05" transform="translate(-385.000000, -2851.000000)" fill="#F03226" fill-rule="nonzero">
            <g id="Group-5" transform="translate(280.000000, 2193.000000)">
                <g id="Group-40" transform="translate(105.000000, 491.000000)">
                    <g id="Group-41">
                        <path d="M18.5234766,181.469508 C17.5205469,180.680266 16.5673828,179.868883 15.9326172,179.234117 C15.1074219,178.408922 14.3721094,177.609117 13.7331797,176.847398 C14.7298125,173.767719 15.1667344,172.179789 15.1667344,171.333367 C15.1667344,167.737445 13.8675469,167 11.9167344,167 C10.4345313,167 8.66673438,167.770148 8.66673438,171.437062 C8.66673438,173.053633 9.55225781,175.016125 11.3073594,177.297016 C10.8778516,178.607781 10.3731875,180.119641 9.80616406,181.823961 C9.53316406,182.641742 9.23700781,183.399195 8.92378906,184.09957 C8.66886719,184.212812 8.42125781,184.328086 8.18217969,184.447625 C7.32103125,184.87825 6.50325,185.265406 5.74467969,185.625141 C2.28515625,187.262836 0,188.346203 0,190.485312 C0,192.038406 1.68746094,193 3.25,193 C5.26428906,193 8.30588281,190.309609 10.5275625,185.777383 C12.8338437,184.867586 15.7009531,184.193617 17.9638672,183.771523 C19.7771641,185.165875 21.779875,186.5 22.75,186.5 C25.436125,186.5 26,184.946906 26,183.64457 C26,181.083266 23.0736797,181.083266 21.6666328,181.083266 C21.2297109,181.083367 20.0575781,181.212453 18.5234766,181.469508 Z M3.0977894,190 C2.47062819,190 2.04610571,189.746324 2,189.697618 C2,189.030294 4.3209287,188.087324 6.56580356,187.175588 C6.70834019,187.117706 6.85314095,187.059735 7,187 C5.35120616,189.049706 3.72062819,190 3.0977894,190 Z M11,171.454416 C11,169 11.6504172,169 12,169 C12.7070404,169 13,169 13,171.342312 C13,171.836402 12.7187588,173.071625 12.2040874,175 C11.4188619,173.58405 11,172.370567 11,171.454416 Z M12,183 C12.065857,182.803659 12.1296406,182.605094 12.1913507,182.404305 C12.5821485,181.146726 12.9339455,180.017077 13.2476303,179 C13.6847354,179.516269 14.1558057,180.044717 14.6608412,180.586296 C14.8583136,180.798099 15.3478476,181.274655 16,181.871409 C14.7018167,182.174817 13.3205964,182.550978 12,183 Z M24,183.362103 C24,183.808743 24,183.994128 22.9325855,184 C22.6191349,183.941747 21.8944019,183.57284 21,183.046603 C21.3246683,183.015565 21.5640168,183 21.6988459,183 C23.3988782,183 23.880919,183.143629 24,183.362103 Z" id="pdf-icon"></path>
                    </g>
                </g>
            </g>
        </g>
    </g>
</svg>