<?xml version="1.0" encoding="UTF-8"?>
<svg width="160px" height="47px" viewBox="0 0 160 47" version="1.1" xmlns="http://www.w3.org/2000/svg" xmlns:xlink="http://www.w3.org/1999/xlink">
    <!-- Generator: sketchtool 49.1 (51147) - http://www.bohemiancoding.com/sketch -->
    <title>3733BAD6-AECF-49FE-844D-A94D41CCCCF2</title>
    <desc>Created with sketchtool.</desc>
    <defs></defs>
    <g id="Design" stroke="none" stroke-width="1" fill="none" fill-rule="evenodd">
        <g id="Ab-invest-1_4-05" transform="translate(-179.000000, -24.000000)" fill="#FFFFFE">
            <g id="logo" transform="translate(149.000000, 0.000000)">
                <path d="M142.070858,47.0929418 C141.083404,47.0929418 140.281031,47.8925457 140.281031,48.8698393 C140.281031,49.8566899 141.083404,50.6485066 142.070858,50.6485066 C143.057243,50.6485066 143.858546,49.8566899 143.858546,48.8698393 C143.858546,47.8925457 143.057243,47.0929418 142.070858,47.0929418 Z M80.0502598,48.7820563 C80.0502598,48.7820563 80.943212,45.815487 81.0790806,45.3507328 C81.4399702,44.1437168 81.9798783,42.243286 81.9798783,42.243286 L82.0683176,42.243286 C82.0683176,42.243286 82.5654324,44.2130936 82.8899478,45.3333886 C83.0169011,45.7691178 83.869913,48.7820563 83.869913,48.7820563 L80.0502598,48.7820563 Z M85.4853578,54.1693829 L88.7158908,54.1693829 L83.8367482,39.3662695 C83.323586,39.1942432 82.682044,39.0866382 82.004841,39.0866382 C81.2652312,39.0866382 81.0013395,39.1839783 80.4211345,39.3662695 L75.2470752,54.1693829 L78.3413831,54.1693829 C78.3413831,54.1693829 78.7564775,52.873168 79.2635774,51.2626335 L84.6141588,51.2626335 C85.0962959,52.8721062 85.4853578,54.1693829 85.4853578,54.1693829 Z M190,54.1693829 C190,54.1693829 188.470498,50.9284918 188.095701,50.1957871 C187.673474,49.3639725 187.284769,48.7901975 186.420702,48.5863144 L186.420702,48.5374674 C186.999481,48.4291546 187.459151,48.0808543 187.956623,47.0225031 C188.436264,45.9868054 188.578195,45.7655782 188.858134,45.5209893 C189.13415,45.2728608 189.510017,45.3673691 189.510017,45.3673691 L189.652305,43.4396831 C189.250048,43.3865885 188.806069,43.3858806 188.347468,43.4106581 C187.590027,43.4573813 187.193833,43.6708213 186.822959,44.0474387 C186.532678,44.3334413 186.331906,44.7606754 186.085488,45.2615339 C185.82231,45.796727 185.615119,46.2296245 185.350871,46.7747285 C185.081274,47.3325752 184.949685,47.5817656 184.223626,47.5817656 L183.752544,47.5817656 L183.752544,43.5794987 L180.936748,43.5794987 L180.936748,54.1693829 L183.752544,54.1693829 L183.752544,49.8421774 L184.1359,49.8358061 C184.936133,49.8358061 185.073072,50.0340257 185.498151,50.8718576 C185.998832,51.8735747 186.944206,54.1693829 186.944206,54.1693829 L190,54.1693829 Z M178.491115,54.1693829 L178.491115,43.5794987 L175.686018,43.5794987 L175.686018,47.5835354 L172.51076,47.5835354 L172.51076,43.5794987 L169.711012,43.5794987 L169.711012,54.1693829 L172.51076,54.1693829 L172.51076,49.8450091 L175.686018,49.8450091 L175.686018,54.1693829 L178.491115,54.1693829 Z M101.427623,43.4832206 L101.416211,53.6125981 C102.745654,54.1693829 104.205974,54.4203431 105.503679,54.4203431 C108.481375,54.4203431 110.07471,52.8926361 110.07471,50.3745387 C110.07471,48.0960748 108.664316,46.6865916 106.028252,46.6865916 C105.358538,46.6865916 104.96591,46.7747285 104.23058,46.9499405 L104.23058,43.4832206 L101.427623,43.4832206 Z M107.175111,50.5037354 C107.175111,51.5486361 106.804237,52.2643506 105.457676,52.2643506 C105.004068,52.2643506 104.81756,52.2643506 104.229153,52.1004654 L104.229153,49.0468211 C104.959848,48.9055896 105.024394,48.881874 105.457676,48.881874 C106.744683,48.881874 107.175111,49.5030802 107.175111,50.5037354 Z M168.242134,53.1531533 C167.499315,52.036044 167.307102,51.3769637 167.307102,49.9717281 L167.307102,47.1191351 C167.307102,45.5779774 167.12951,45.0126975 166.718695,44.4477715 C166.148475,43.6552469 165.200604,43.3126101 163.449648,43.3126101 C162.213636,43.3126101 161.002944,43.4453465 159.844317,43.7380744 L160.259055,45.7811526 C161.044668,45.6721318 161.870934,45.5779774 162.46362,45.5779774 C164.316924,45.5779774 164.53089,45.8466358 164.53089,47.2267401 L164.53089,47.7442349 C164.119362,47.6341522 163.656482,47.5548644 163.115504,47.5548644 C160.31219,47.5548644 158.83618,48.911961 158.83618,51.1525508 C158.83618,53.2582805 160.413824,54.4079544 162.344512,54.4079544 C163.063082,54.4079544 163.810181,54.275218 164.402511,54.0377084 C164.760904,53.8812565 164.916386,53.7931195 165.378196,53.4901267 C165.658492,53.8978928 166.21944,54.3099065 166.446958,54.3842388 L168.242134,53.1531533 Z M164.677457,51.9323327 C164.061948,52.1443569 163.656482,52.1928499 163.167569,52.1928499 C162.163711,52.1928499 161.598484,51.7995963 161.598484,50.7784112 C161.598484,49.7158124 162.317053,49.3558314 163.706764,49.3558314 C164.044117,49.3558314 164.377548,49.4064482 164.53089,49.4606046 L164.53089,50.2226883 C164.53089,51.0445919 164.575823,51.5822627 164.677457,51.9323327 Z M137.305831,53.1531533 C136.565865,52.036044 136.373652,51.3769637 136.373652,49.9717281 L136.373652,47.1191351 C136.373652,45.5779774 136.194277,45.0126975 135.782392,44.4477715 C135.215025,43.6552469 134.265372,43.3126101 132.515485,43.3126101 C131.281613,43.3126101 130.067711,43.4453465 128.908015,43.7380744 L129.323822,45.7811526 C130.112644,45.6721318 130.933918,45.5779774 131.528387,45.5779774 C133.384901,45.5779774 133.598867,45.8466358 133.598867,47.2267401 L133.598867,47.7442349 C133.186269,47.6341522 132.721249,47.5548644 132.181341,47.5548644 C129.375887,47.5548644 127.899877,48.911961 127.899877,51.1525508 C127.899877,53.2582805 129.476451,54.4079544 131.409993,54.4079544 C132.127849,54.4079544 132.877088,54.275218 133.469417,54.0377084 C133.825671,53.8812565 133.981153,53.7931195 134.445103,53.4901267 C134.725042,53.8978928 135.283137,54.3099065 135.511725,54.3842388 L137.305831,53.1531533 Z M133.742937,51.9323327 C133.126715,52.1443569 132.721249,52.1928499 132.234476,52.1928499 C131.231331,52.1928499 130.661111,51.7995963 130.661111,50.7784112 C130.661111,49.7158124 131.380751,49.3558314 132.770461,49.3558314 C133.104605,49.3558314 133.441245,49.4064482 133.598867,49.4606046 L133.598867,50.2226883 C133.598867,51.0445919 133.63952,51.5822627 133.742937,51.9323327 Z M99.2048704,54.1693829 L99.2048704,43.9653191 C97.6653836,43.5101219 96.4810807,43.3126101 94.9362448,43.3126101 C93.3928353,43.3126101 92.2377744,43.5101219 90.6975744,43.9653191 L90.6975744,49.1898224 C90.6975744,50.6106325 90.6729683,51.0368047 90.5171296,51.4958955 C90.3620041,51.8983522 90.1541002,52.3815126 89.5892295,52.7549442 L90.3534454,54.3842388 C92.6047264,53.7531217 93.4527458,52.7807835 93.4527458,49.690327 L93.4527458,45.8466358 C94.1966349,45.7386769 94.3435584,45.7138995 94.9362448,45.7138995 C95.5328538,45.7138995 95.6573108,45.7386769 96.3990603,45.8466358 L96.3990603,54.1693829 L99.2048704,54.1693829 Z M120.422472,57.6382266 L120.422472,53.8334714 C120.777656,54.041956 121.485884,54.3499044 122.680172,54.3499044 C125.05484,54.3499044 126.804727,52.3910696 126.804727,48.8114353 C126.804727,44.9557094 125.066252,43.3051769 122.20909,43.3051769 C121.483031,43.3051769 121.010522,43.3791553 120.422472,43.6573707 L120.422472,39.1114157 L117.629856,39.1114157 L117.629856,43.6573707 C117.042519,43.3791553 116.567158,43.3051769 115.842169,43.3051769 C112.985007,43.3051769 111.245818,45.0240243 111.245818,48.8772725 C111.245818,52.4583227 112.818113,54.3499044 115.366807,54.3499044 C116.566088,54.3499044 117.274672,54.041956 117.629856,53.8334714 L117.629856,57.6382266 L120.422472,57.6382266 Z M114.12509,48.8772725 C114.12509,46.7517209 114.770198,45.6278863 116.056492,45.6278863 C116.599609,45.6278863 116.960142,45.6247006 117.629856,45.94256 L117.629856,51.7896853 C117.021836,51.987551 116.734408,52.0144523 116.19236,52.0144523 C114.726335,52.0144523 114.12509,50.8269042 114.12509,48.8772725 Z M123.926525,48.8114353 C123.926525,50.7585893 123.145192,52.0144523 121.858898,52.0144523 C121.31899,52.0144523 121.032632,51.987551 120.422472,51.7896853 L120.422472,45.94256 C121.092186,45.6247006 121.452719,45.6278863 121.993697,45.6278863 C123.281773,45.6278863 123.926525,46.6844678 123.926525,48.8114353 Z M157.766349,49.5724571 C157.766349,46.9488786 156.217947,45.1411863 152.964591,45.1411863 C152.165427,45.1411863 151.607332,45.2169345 150.745405,45.4190478 L150.739342,41.6426097 C151.275328,41.5668615 152.193599,41.5003163 153.204946,41.5003163 C154.161732,41.5003163 155.37385,41.552349 156.437262,41.6811917 L156.511437,39.4926345 C155.302528,39.2236222 153.549432,39.059383 152.18932,39.059383 C150.848822,39.059383 148.764791,39.3921089 147.771988,39.6586435 L147.770918,53.6179075 C149.31825,54.1796478 150.828138,54.4369794 152.378323,54.4369794 C155.925526,54.4369794 157.766349,52.5705291 157.766349,49.5724571 Z M154.783304,49.7837734 C154.783304,51.1985661 153.994838,52.1294904 152.541294,52.1294904 C151.966795,52.1294904 151.495713,52.1312603 150.745405,51.9280851 L150.745405,47.6454791 C151.076696,47.5913226 151.761031,47.4858415 152.541294,47.5138046 C154.018731,47.5693769 154.783304,48.2542965 154.783304,49.7837734 Z M45.175196,31.4332364 L40.9793188,43.937002 L49.4377592,43.937002 L45.2276177,31.4332364 L45.175196,31.4332364 Z M30.470369,64.7270564 C30.2100435,64.7270564 30,64.9408504 30,65.2052613 L30,70.5221491 C30,70.7872679 30.2100435,71 30.470369,71 L59.930305,71 C60.1884908,71 60.3967513,70.7872679 60.3967513,70.5221491 L60.3967513,65.2052613 C60.3967513,64.9408504 60.1884908,64.7270564 59.930305,64.7270564 L30.470369,64.7270564 Z M45.2001587,24 C48.4242727,24 49.4377592,26.2919146 50.2847088,28.5866608 C50.644172,29.5568752 59.0184524,52.318861 59.2687928,53.0016569 C59.339045,53.1899655 59.2926857,53.5046392 58.9970557,53.6168457 C58.7003559,53.7286982 54.3482835,55.4086096 54.1082847,55.4981624 C53.8675728,55.5880692 53.5965489,55.4553328 53.5081095,55.2178232 C53.418957,54.9817295 51.6155785,50.0205751 51.4115974,49.4644982 L39.0040542,49.4644982 C38.8000731,50.0205751 36.9777943,54.9905785 36.8936343,55.2178232 C36.8101875,55.4450679 36.5495053,55.5983341 36.2952421,55.4981624 C36.0399092,55.3972828 31.6685797,53.7163094 31.4103939,53.6168457 C31.1600534,53.5223374 31.0452249,53.2402283 31.1340208,53.0016569 C31.4421322,52.1471886 39.6883894,29.7515552 40.1109727,28.5866608 C40.9265405,26.3287268 41.9774711,24 45.2001587,24 Z" id="Page-1"></path>
            </g>
        </g>
    </g>
</svg>