<?xml version="1.0" encoding="UTF-8"?>
<svg width="58px" height="58px" viewBox="0 0 58 58" version="1.1" xmlns="http://www.w3.org/2000/svg" xmlns:xlink="http://www.w3.org/1999/xlink">
    <!-- Generator: sketchtool 49.1 (51147) - http://www.bohemiancoding.com/sketch -->
    <title>CD407323-0F2F-4D9B-BC64-14829872DECC</title>
    <desc>Created with sketchtool.</desc>
    <defs></defs>
    <g id="Design" stroke="none" stroke-width="1" fill="none" fill-rule="evenodd">
        <g id="Ab-invest-1_4-05" transform="translate(-796.000000, -1818.000000)">
            <g id="how-to-start" transform="translate(148.000000, 1361.000000)">
                <g id="step-4" transform="translate(587.000000, 381.000000)">
                    <g transform="translate(32.000000, 47.000000)" id="money-icon">
                        <g transform="translate(21.000000, 18.000000)">
                            <rect id="Rectangle-3" x="0" y="0" width="74" height="80"></rect>
                            <path d="M65.0333333,43.5614035 L55.3666667,43.5614035 C54.8330667,43.5614035 54.4,43.9825536 54.4,44.5035737 L54.4,45.445744 L46.8706333,45.445744 C45.9126667,45.445744 44.9856333,45.7189734 44.1900667,46.237167 L36.7071,51.0987654 L29.0037333,51.0987654 C27.6339667,51.0987654 26.3618333,51.7620533 25.6001,52.8756985 C24.9524333,53.8244639 24.7678,54.9889864 25.0500667,56.0705978 L13.1320333,52.4394737 C12.3287333,52.1455166 11.4374667,52.1285575 10.5713333,52.4112086 C9.03336667,52.9105588 8,54.3077973 8,55.8897011 C8,57.3651397 8.90093333,58.6907732 10.2958333,59.2645549 L31.3769,67.9579597 C33.0540667,68.6495127 34.8279,69 36.6491,69 L36.8946333,69 C38.3504333,69 39.7907667,68.772937 41.1924333,68.3169266 L54.4,63.7398635 L54.4,65.231319 C54.4,65.7523392 54.8330667,66.1734893 55.3666667,66.1734893 L65.0333333,66.1734893 C65.5669333,66.1734893 66,65.7523392 66,65.231319 L66,44.5035737 C66,43.9825536 65.5669333,43.5614035 65.0333333,43.5614035 Z M54.4,61.7396361 L40.5631333,66.5352827 C39.3760667,66.9206303 38.1426,67.1156595 36.8946333,67.1156595 L36.6491,67.1156595 C35.0889,67.1156595 33.5673667,66.8151072 32.1299333,66.2224821 L11.0488667,57.5290773 C10.3712333,57.2492528 9.93333333,56.6057505 9.93333333,55.8878168 C9.93333333,55.119948 10.436,54.4406433 11.2335,54.1815465 C11.6288667,54.0534113 12.0619333,54.0600065 12.5037,54.2201754 L26.4285333,58.4637102 C26.4411,58.4759584 26.4575333,58.4844379 26.4710667,58.4966862 C26.8355,58.8302144 27.2550333,59.0968486 27.7171,59.2796296 C27.7364333,59.287167 27.7557667,59.29282 27.7751,59.3003574 C27.9752,59.3766732 28.1820667,59.4350877 28.3947333,59.4803119 C28.445,59.4906758 28.4943,59.5019818 28.5455333,59.5114035 C28.7804333,59.5509747 29.0182333,59.5782976 29.2628,59.5782976 L43.7666667,59.5782976 L43.7666667,57.6939571 L29.2628,57.6939571 C29.0810667,57.6939571 28.9061,57.6638077 28.7359667,57.6223522 C28.6741,57.6072775 28.6141667,57.5856075 28.5542333,57.5648798 C28.4488667,57.5290773 28.3464,57.4847953 28.2487667,57.4339181 C28.1869,57.4009422 28.1240667,57.3698506 28.0651,57.3312216 C27.9549,57.2586745 27.8534,57.1748213 27.7577,57.0834308 C27.7287,57.0551657 27.6939,57.0334958 27.6658667,57.0033463 C27.5373,56.8639051 27.4242,56.7075049 27.3352667,56.5332034 L27.0752333,56.0263158 C26.7301333,55.3536062 26.7813667,54.5471085 27.2105667,53.9196231 C27.6117333,53.3326511 28.2816333,52.9831059 29.0047,52.9831059 L37,52.9831059 C37.1904333,52.9831059 37.3779667,52.9275179 37.5365,52.8248213 L45.2630667,47.8049383 C45.7396333,47.4940221 46.2954667,47.3300845 46.8706333,47.3300845 L54.4,47.3300845 L54.4,61.7396361 Z M64.0666667,64.2891488 L56.3333333,64.2891488 L56.3333333,45.445744 L64.0666667,45.445744 L64.0666667,64.2891488 Z" id="Shape" fill="#F03226" fill-rule="nonzero"></path>
                            <path d="M58.877193,29.3157895 C56.6324912,29.3157895 54.8070175,31.1412632 54.8070175,33.3859649 C54.8070175,35.6306667 56.6324912,37.4561404 58.877193,37.4561404 C61.1218947,37.4561404 62.9473684,35.6306667 62.9473684,33.3859649 C62.9473684,31.1412632 61.1218947,29.3157895 58.877193,29.3157895 Z M58.877193,35.4210526 C57.7548421,35.4210526 56.8421053,34.5083158 56.8421053,33.3859649 C56.8421053,32.263614 57.7548421,31.3508772 58.877193,31.3508772 C59.9995439,31.3508772 60.9122807,32.263614 60.9122807,33.3859649 C60.9122807,34.5083158 59.9995439,35.4210526 58.877193,35.4210526 Z" id="Shape" fill="#F03226" fill-rule="nonzero"></path>
                            <path d="M44.6315789,15.0701754 C42.3868772,15.0701754 40.5614035,16.8956491 40.5614035,19.1403509 C40.5614035,21.3850526 42.3868772,23.2105263 44.6315789,23.2105263 C46.8762807,23.2105263 48.7017544,21.3850526 48.7017544,19.1403509 C48.7017544,16.8956491 46.8762807,15.0701754 44.6315789,15.0701754 Z M44.6315789,21.1754386 C43.5092281,21.1754386 42.5964912,20.2627018 42.5964912,19.1403509 C42.5964912,18.018 43.5092281,17.1052632 44.6315789,17.1052632 C45.7539298,17.1052632 46.6666667,18.018 46.6666667,19.1403509 C46.6666667,20.2627018 45.7539298,21.1754386 44.6315789,21.1754386 Z" id="Shape" fill="#F03226" fill-rule="nonzero"></path>
                            <rect id="Rectangle-path" fill="#F03226" fill-rule="nonzero" transform="translate(52.263158, 26.263158) rotate(-45.000000) translate(-52.263158, -26.263158) " x="38.5263158" y="25.245614" width="27.4736842" height="2.03508772"></rect>
                            <path d="M23.2631579,11 C14.8474342,11 8,17.8474342 8,26.2631579 C8,34.6788816 14.8474342,41.5263158 23.2631579,41.5263158 C31.6788816,41.5263158 38.5263158,34.6788816 38.5263158,26.2631579 C38.5263158,17.8474342 31.6788816,11 23.2631579,11 Z M23.2631579,39.6184211 C15.8986842,39.6184211 9.90789474,33.6276316 9.90789474,26.2631579 C9.90789474,18.8986842 15.8986842,12.9078947 23.2631579,12.9078947 C30.6276316,12.9078947 36.6184211,18.8986842 36.6184211,26.2631579 C36.6184211,33.6276316 30.6276316,39.6184211 23.2631579,39.6184211 Z" id="Shape" fill="#F03226" fill-rule="nonzero"></path>
                            <path d="M29.0186404,28.8933816 L24.7046784,25.2853406 L24.7046784,18.0916871 C26.3090058,18.5275775 27.502924,20.0410044 27.502924,21.8538012 L29.3684211,21.8538012 C29.3684211,18.9605424 27.347155,16.5577822 24.7046784,16.0906871 L24.7046784,14.0526316 L22.8391813,14.0526316 L22.8391813,16.0906871 C20.1967047,16.556807 18.1754386,18.9595673 18.1754386,21.8538012 C18.1754386,22.1502456 18.3041579,22.4301126 18.5252193,22.6153904 L22.8391813,26.2234313 L22.8391813,33.4170848 C21.2348538,32.9811944 20.0409357,31.4677675 20.0409357,29.6549708 L18.1754386,29.6549708 C18.1754386,32.5482295 20.1967047,34.9509898 22.8391813,35.4180848 L22.8391813,37.4561404 L24.7046784,37.4561404 L24.7046784,35.4180848 C27.347155,34.9519649 29.3684211,32.5492047 29.3684211,29.6549708 C29.3684211,29.3585263 29.2397018,29.0786594 29.0186404,28.8933816 Z M22.8391813,23.7251067 L20.0651871,21.4052339 C20.2424094,19.7942924 21.3682368,18.4914971 22.8391813,18.0926623 L22.8391813,23.7251067 Z M24.7046784,33.4161096 L24.7046784,27.7836652 L27.4786725,30.103538 C27.3014503,31.7144795 26.1756228,33.0172749 24.7046784,33.4161096 Z" id="Shape" fill="#F03226" fill-rule="nonzero"></path>
                            <rect id="Rectangle-path" fill="#F03226" fill-rule="nonzero" x="11.0526316" y="41.5263158" width="2.03508772" height="2.03508772"></rect>
                            <rect id="Rectangle-path" fill="#F03226" fill-rule="nonzero" x="11.0526316" y="44.5789474" width="2.03508772" height="3.05263158"></rect>
                            <rect id="Rectangle-path" fill="#F03226" fill-rule="nonzero" x="33.4385965" y="41.5263158" width="2.03508772" height="2.03508772"></rect>
                            <rect id="Rectangle-path" fill="#F03226" fill-rule="nonzero" x="33.4385965" y="44.5789474" width="2.03508772" height="3.05263158"></rect>
                            <rect id="Rectangle-path" fill="#F03226" fill-rule="nonzero" x="22.245614" y="43.5614035" width="2.03508772" height="2.03508772"></rect>
                            <rect id="Rectangle-path" fill="#F03226" fill-rule="nonzero" x="22.245614" y="47.6315789" width="2.03508772" height="3.05263158"></rect>
                        </g>
                    </g>
                </g>
            </g>
        </g>
    </g>
</svg>