<?xml version="1.0" encoding="UTF-8"?>
<svg width="35px" height="60px" viewBox="0 0 35 60" version="1.1" xmlns="http://www.w3.org/2000/svg" xmlns:xlink="http://www.w3.org/1999/xlink">
    <!-- Generator: sketchtool 49.1 (51147) - http://www.bohemiancoding.com/sketch -->
    <title>06CE02D2-18F7-469D-B800-F64571FAA4DF</title>
    <desc>Created with sketchtool.</desc>
    <defs></defs>
    <g id="Design" stroke="none" stroke-width="1" fill="none" fill-rule="evenodd">
        <g id="Ab-invest-1_4-05" transform="translate(-223.000000, -1573.000000)">
            <g id="how-to-start" transform="translate(148.000000, 1361.000000)">
                <g id="step-1" transform="translate(2.000000, 139.000000)">
                    <g id="step-1-icon" transform="translate(32.000000, 47.000000)">
                        <g id="open-bill-icon" transform="translate(21.000000, 18.000000)">
                            <rect id="Rectangle-3" x="0" y="0" width="74" height="80"></rect>
                            <path d="M39.0609917,61.8983051 L34.9270441,61.8983051 C34.3920058,61.8983051 33.9581256,62.3535665 33.9581256,62.9152542 C33.9581256,63.4768152 34.391885,63.9322034 34.9270441,63.9322034 L39.0609917,63.9322034 C39.5960301,63.9322034 40.0299103,63.476942 40.0299103,62.9152542 C40.0299103,62.3535665 39.5961509,61.8983051 39.0609917,61.8983051 Z" id="Shape" fill="#F03226" fill-rule="nonzero"></path>
                            <path d="M39.0609917,12.0677966 L34.9270441,12.0677966 C34.3920058,12.0677966 33.9581256,12.523058 33.9581256,13.0847458 C33.9581256,13.6463067 34.391885,14.1016949 34.9270441,14.1016949 L39.0609917,14.1016949 C39.5960301,14.1016949 40.0299103,13.6464335 40.0299103,13.0847458 C40.0299103,12.523058 39.5961509,12.0677966 39.0609917,12.0677966 Z" id="Shape" fill="#F03226" fill-rule="nonzero"></path>
                            <path d="M31.9314908,12.0677966 C31.3741772,12.0677966 30.9222333,12.523058 30.9222333,13.0847458 C30.9222333,13.6463067 31.3740513,14.1016949 31.9314908,14.1016949 L31.9423173,14.1016949 C32.4996309,14.1016949 32.9461615,13.6464335 32.9461615,13.0847458 C32.9461615,12.523058 32.4889302,12.0677966 31.9314908,12.0677966 Z" id="Shape" fill="#F03226" fill-rule="nonzero"></path>
                            <path d="M54.3896513,24.0333281 L54.3896513,11.9456954 C54.3896513,9.76999654 52.6282112,8 50.4632899,8 L24.5367101,8 C22.3716722,8 20.6103487,9.77011373 20.6103487,11.9456954 L20.6103487,13.010459 L20.6103487,62.989541 L20.6103487,64.0543046 C20.6103487,66.2300035 22.3717888,68 24.5367101,68 L50.4632899,68 C52.6283278,68 54.3896513,66.2298863 54.3896513,64.0543046 L54.3896513,51.9665548 L54.3896513,24.0333281 Z M22.4800057,11.9456954 C22.4800057,10.8060492 23.4026482,9.87886352 24.5367101,9.87886352 L50.4632899,9.87886352 C51.5973518,9.87886352 52.5199943,10.8060492 52.5199943,11.9456954 L52.5199943,16.016664 L22.4800057,16.016664 L22.4800057,11.9456954 Z M50.4632899,66.1210193 L24.5367101,66.1210193 C23.4026482,66.1210193 22.4800057,65.1938336 22.4800057,64.0541874 L22.4800057,59.9832188 L52.5199943,59.9832188 L52.5198776,64.0541874 C52.5199943,65.1938336 51.5973518,66.1210193 50.4632899,66.1210193 Z M52.5199943,58.1042381 L22.4800057,58.1042381 L22.4800057,17.8956447 L52.5199943,17.8956447 L52.5198776,24.0334452 L52.5199943,51.9665548 L52.5199943,58.1042381 Z" id="Shape" fill="#F03226" fill-rule="nonzero"></path>
                            <path d="M34.6588574,32.6583382 C34.5059901,33.0804038 31.5218572,41.1809268 31.4105745,41.4898315 C31.3781415,41.575828 31.4199457,41.6783847 31.5105093,41.7123765 C31.603855,41.7484021 33.1858261,42.3564788 33.2780736,42.3930854 C33.3700282,42.429111 33.4646185,42.3739105 33.494782,42.2914003 C33.5252383,42.2094712 34.1844417,40.4110982 34.2588254,40.2103428 L38.7484958,40.2103428 C38.8222938,40.4110982 39.4750546,42.2059849 39.5069751,42.2914003 C39.5391885,42.377179 39.637293,42.4253341 39.7242692,42.3930854 C39.8112454,42.3602557 41.3858953,41.75276 41.493371,41.7123765 C41.6005538,41.671993 41.6172462,41.5581784 41.5917683,41.4898315 C41.5012779,41.2429547 38.4708748,33.0095874 38.3408498,32.6583382 C38.0342367,31.8291691 37.6675896,31 36.5008785,31 C35.3344604,31 34.9539761,31.8422429 34.6588574,32.6583382 Z M36.4918734,33.6882626 L36.5105426,33.6882626 L38.0342367,38.2109239 L34.9733773,38.2109239 L36.4918734,33.6882626 Z M31.1701454,45.7306798 C31.0761408,45.7306798 31,45.808251 31,45.9035445 L31,47.8274259 C31,47.9233004 31.0761408,48 31.1701454,48 L41.8313189,48 C41.9247378,48 42,47.9233004 42,47.8274259 L42,45.9035445 C42,45.808251 41.9247378,45.7306798 41.8313189,45.7306798 L31.1701454,45.7306798 Z" id="Clip-2" fill="#EF3124"></path>
                        </g>
                    </g>
                </g>
            </g>
        </g>
    </g>
</svg>